<svg width="31" height="36" viewBox="0 0 31 36" fill="none" xmlns="http://www.w3.org/2000/svg">
<path d="M21.7469 14.0057L21.2646 12.2059C21.0515 11.4104 20.531 10.7321 19.8177 10.3203C19.1044 9.90848 18.2568 9.79688 17.4612 10.0101C16.6657 10.2232 15.9874 10.7437 15.5756 11.457C15.1638 12.1702 15.0522 13.0179 15.2653 13.8134L12.6933 4.21458C12.4802 3.41903 11.9597 2.74074 11.2464 2.32893C10.5331 1.91712 9.68549 1.80552 8.88993 2.01869C8.09438 2.23186 7.41609 2.75233 7.00428 3.46561C6.59247 4.17888 6.48087 5.02653 6.69404 5.82209L11.5688 24.0149L6.75706 19.1957C6.17436 18.6122 5.3837 18.284 4.55903 18.2834C3.73436 18.2828 2.94322 18.6098 2.35966 19.1925C1.7761 19.7752 1.44792 20.5658 1.44732 21.3905C1.44671 22.2152 1.77373 23.0063 2.35643 23.5899C10.0067 32.5835 13.9409 35.3874 20.5701 33.6111C22.1458 33.1889 23.6229 32.4605 24.917 31.4674C26.2112 30.4744 27.2971 29.2362 28.1127 27.8235C28.9284 26.4107 29.4578 24.8512 29.6707 23.2339C29.8836 21.6166 29.7759 19.9732 29.3537 18.3975L27.7462 12.3982C27.533 11.6027 27.0125 10.9244 26.2993 10.5126C25.586 10.1008 24.7383 9.98917 23.9428 10.2023C23.1472 10.4155 22.4689 10.936 22.0571 11.6492C21.6453 12.3625 21.5337 13.2102 21.7469 14.0057Z" stroke="black" stroke-width="2" stroke-linecap="round" stroke-linejoin="round"/>
</svg>
