<svg width="60" height="60" viewBox="0 0 60 60" fill="none" xmlns="http://www.w3.org/2000/svg">
<g opacity="0.24">
<path d="M50.625 7.5H31.875V5.625C31.875 5.12772 31.6775 4.65081 31.3258 4.29917C30.9742 3.94754 30.4973 3.75 30 3.75C29.5027 3.75 29.0258 3.94754 28.6742 4.29917C28.3225 4.65081 28.125 5.12772 28.125 5.625V7.5H9.375C7.88316 7.5 6.45242 8.09263 5.39752 9.14752C4.34263 10.2024 3.75 11.6332 3.75 13.125V43.125C3.75 44.6168 4.34263 46.0476 5.39752 47.1025C6.45242 48.1574 7.88316 48.75 9.375 48.75H21.9375L19.0312 53.3812C18.9003 53.5904 18.812 53.8234 18.7713 54.0668C18.7306 54.3102 18.7383 54.5592 18.7941 54.7996C18.8498 55.0399 18.9525 55.267 19.0961 55.4676C19.2398 55.6682 19.4216 55.8385 19.6313 55.9688C19.8404 56.0997 20.0734 56.188 20.3168 56.2287C20.5602 56.2694 20.8092 56.2617 21.0496 56.2059C21.2899 56.1502 21.517 56.0475 21.7176 55.9039C21.9182 55.7602 22.0885 55.5784 22.2188 55.3688L26.3438 48.75H33.75L37.875 55.3688C38.0052 55.5784 38.1755 55.7602 38.3761 55.9039C38.5768 56.0475 38.8038 56.1502 39.0442 56.2059C39.2846 56.2617 39.5336 56.2694 39.777 56.2287C40.0204 56.188 40.2533 56.0997 40.4625 55.9688C40.6721 55.8385 40.854 55.6682 40.9976 55.4676C41.1413 55.267 41.2439 55.0399 41.2997 54.7996C41.3554 54.5592 41.3632 54.3102 41.3225 54.0668C41.2818 53.8234 41.1934 53.5904 41.0625 53.3812L38.0625 48.75H50.625C52.1168 48.75 53.5476 48.1574 54.6025 47.1025C55.6574 46.0476 56.25 44.6168 56.25 43.125V13.125C56.25 11.6332 55.6574 10.2024 54.6025 9.14752C53.5476 8.09263 52.1168 7.5 50.625 7.5ZM7.5 13.125C7.5 12.6277 7.69754 12.1508 8.04918 11.7992C8.40081 11.4475 8.87772 11.25 9.375 11.25H50.625C51.1223 11.25 51.5992 11.4475 51.9508 11.7992C52.3025 12.1508 52.5 12.6277 52.5 13.125V37.5H48.75V35.625C48.75 34.1332 48.1574 32.7024 47.1025 31.6475C46.0476 30.5926 44.6168 30 43.125 30H39.375C37.8832 30 36.4524 30.5926 35.3975 31.6475C34.3426 32.7024 33.75 34.1332 33.75 35.625V37.5H7.5V13.125ZM45 37.5H37.5V35.625C37.5 35.1277 37.6975 34.6508 38.0492 34.2992C38.4008 33.9475 38.8777 33.75 39.375 33.75H43.125C43.6223 33.75 44.0992 33.9475 44.4508 34.2992C44.8025 34.6508 45 35.1277 45 35.625V37.5ZM52.5 43.125C52.5 43.6223 52.3025 44.0992 51.9508 44.4508C51.5992 44.8025 51.1223 45 50.625 45H9.375C8.87772 45 8.40081 44.8025 8.04918 44.4508C7.69754 44.0992 7.5 43.6223 7.5 43.125V41.25H52.5V43.125Z" fill="#1261D7"/>
</g>
</svg>
