<svg width="59" height="59" viewBox="0 0 59 59" fill="none" xmlns="http://www.w3.org/2000/svg">
<g opacity="0.24">
<path d="M30 35V57" stroke="#363A53" stroke-width="3" stroke-linecap="round" stroke-linejoin="round"/>
<path d="M29.5 35C31.9853 35 34 32.9853 34 30.5C34 28.0147 31.9853 26 29.5 26C27.0147 26 25 28.0147 25 30.5C25 32.9853 27.0147 35 29.5 35Z" stroke="#363A53" stroke-width="3" stroke-linecap="round" stroke-linejoin="round"/>
<path d="M17 17V7.83333C17 7.3471 17.1881 6.88079 17.523 6.53697C17.8579 6.19315 18.3121 6 18.7857 6H40.2143C40.6879 6 41.1421 6.19315 41.477 6.53697C41.8119 6.88079 42 7.3471 42 7.83333V17" stroke="#363A53" stroke-width="3" stroke-linecap="round" stroke-linejoin="round"/>
<path d="M16.5326 17L10.1879 29.5909C10.0408 29.8909 9.97821 30.2241 10.0067 30.5558C10.0352 30.8875 10.1537 31.2057 10.35 31.4773L29.5 57L48.65 31.4773C48.8463 31.2057 48.9648 30.8875 48.9933 30.5558C49.0218 30.2241 48.9592 29.8909 48.8121 29.5909L42.4674 17H16.5326Z" stroke="#363A53" stroke-width="3" stroke-linecap="round" stroke-linejoin="round"/>
</g>
</svg>
