<svg width="171" height="29" viewBox="0 0 171 29" fill="none" xmlns="http://www.w3.org/2000/svg">
<path d="M13.5489 2.92705C13.8483 2.00574 15.1517 2.00574 15.4511 2.92705L17.5309 9.32827C17.6648 9.74029 18.0488 10.0193 18.482 10.0193L25.2126 10.0193C26.1814 10.0193 26.5841 11.2589 25.8004 11.8283L20.3552 15.7844C20.0047 16.0391 19.8581 16.4905 19.9919 16.9025L22.0718 23.3037C22.3712 24.225 21.3167 24.9911 20.533 24.4217L15.0878 20.4656C14.7373 20.2109 14.2627 20.2109 13.9122 20.4656L8.46701 24.4217C7.6833 24.9911 6.62882 24.225 6.92817 23.3037L9.00805 16.9025C9.14193 16.4905 8.99527 16.0391 8.64478 15.7844L3.19958 11.8283C2.41586 11.2589 2.81864 10.0193 3.78736 10.0193L10.518 10.0193C10.9512 10.0193 11.3352 9.74029 11.4691 9.32827L13.5489 2.92705Z" fill="#1261D7"/>
<path d="M49.3732 2.92705C49.6725 2.00574 50.9759 2.00574 51.2753 2.92705L53.3552 9.32827C53.489 9.74029 53.873 10.0193 54.3062 10.0193L61.0369 10.0193C62.0056 10.0193 62.4084 11.2589 61.6246 11.8283L56.1794 15.7844C55.8289 16.0391 55.6823 16.4905 55.8162 16.9025L57.896 23.3037C58.1954 24.225 57.1409 24.9911 56.3572 24.4217L50.912 20.4656C50.5615 20.2109 50.0869 20.2109 49.7364 20.4656L44.2912 24.4217C43.5075 24.9911 42.453 24.225 42.7524 23.3037L44.8323 16.9025C44.9661 16.4905 44.8195 16.0391 44.469 15.7844L39.0238 11.8283C38.2401 11.2589 38.6429 10.0193 39.6116 10.0193L46.3422 10.0193C46.7754 10.0193 47.1594 9.74029 47.2933 9.32827L49.3732 2.92705Z" fill="#1261D7"/>
<path d="M83.4901 2.92705C83.7895 2.00574 85.0929 2.00574 85.3922 2.92705L87.4721 9.32827C87.606 9.74029 87.9899 10.0193 88.4232 10.0193L95.1538 10.0193C96.1225 10.0193 96.5253 11.2589 95.7416 11.8283L90.2964 15.7844C89.9459 16.0391 89.7992 16.4905 89.9331 16.9025L92.013 23.3037C92.3123 24.225 91.2579 24.9911 90.4741 24.4217L85.0289 20.4656C84.6785 20.2109 84.2039 20.2109 83.8534 20.4656L78.4082 24.4217C77.6245 24.9911 76.57 24.225 76.8693 23.3037L78.9492 16.9025C79.0831 16.4905 78.9364 16.0391 78.5859 15.7844L73.1407 11.8283C72.357 11.2589 72.7598 10.0193 73.7285 10.0193L80.4592 10.0193C80.8924 10.0193 81.2763 9.74029 81.4102 9.32827L83.4901 2.92705Z" fill="#1261D7"/>
<path d="M121.02 2.92705C121.319 2.00574 122.622 2.00574 122.922 2.92705L125.002 9.32827C125.135 9.74029 125.519 10.0193 125.953 10.0193L132.683 10.0193C133.652 10.0193 134.055 11.2589 133.271 11.8283L127.826 15.7844C127.475 16.0391 127.329 16.4905 127.463 16.9025L129.542 23.3037C129.842 24.225 128.787 24.9911 128.004 24.4217L122.558 20.4656C122.208 20.2109 121.733 20.2109 121.383 20.4656L115.938 24.4217C115.154 24.9911 114.099 24.225 114.399 23.3037L116.479 16.9025C116.613 16.4905 116.466 16.0391 116.115 15.7844L110.67 11.8283C109.886 11.2589 110.289 10.0193 111.258 10.0193L117.989 10.0193C118.422 10.0193 118.806 9.74029 118.94 9.32827L121.02 2.92705Z" fill="#1261D7"/>
<path d="M155.137 2.92705C155.436 2.00574 156.74 2.00574 157.039 2.92705L159.119 9.32827C159.253 9.74029 159.637 10.0193 160.07 10.0193L166.801 10.0193C167.769 10.0193 168.172 11.2589 167.388 11.8283L161.943 15.7844C161.593 16.0391 161.446 16.4905 161.58 16.9025L163.66 23.3037C163.959 24.225 162.905 24.9911 162.121 24.4217L156.676 20.4656C156.325 20.2109 155.851 20.2109 155.5 20.4656L150.055 24.4217C149.271 24.9911 148.217 24.225 148.516 23.3037L150.596 16.9025C150.73 16.4905 150.583 16.0391 150.233 15.7844L144.787 11.8283C144.004 11.2589 144.407 10.0193 145.375 10.0193L152.106 10.0193C152.539 10.0193 152.923 9.74029 153.057 9.32827L155.137 2.92705Z" fill="#1261D7"/>
</svg>
