<svg width="16" height="16" viewBox="0 0 16 16" fill="none" xmlns="http://www.w3.org/2000/svg">
<g clip-path="url(#clip0_43_4959)">
<path d="M7.99984 0.666687C6.54944 0.666687 5.13162 1.09678 3.92566 1.90258C2.7197 2.70837 1.77977 3.85368 1.22472 5.19367C0.669681 6.53367 0.524457 8.00815 0.807415 9.43068C1.09037 10.8532 1.78881 12.1599 2.81439 13.1855C3.83998 14.2111 5.14665 14.9095 6.56918 15.1924C7.99171 15.4754 9.4662 15.3302 10.8062 14.7751C12.1462 14.2201 13.2915 13.2802 14.0973 12.0742C14.9031 10.8682 15.3332 9.45042 15.3332 8.00002C15.3332 6.0551 14.5606 4.18984 13.1853 2.81457C11.81 1.4393 9.94476 0.666687 7.99984 0.666687ZM11.8045 6.47135L7.13784 11.138C7.01282 11.263 6.84328 11.3332 6.66651 11.3332C6.48973 11.3332 6.32019 11.263 6.19517 11.138L4.19517 9.13802C4.07374 9.01229 4.00654 8.84388 4.00806 8.66909C4.00958 8.49429 4.07969 8.32708 4.20329 8.20347C4.3269 8.07987 4.49411 8.00976 4.66891 8.00824C4.8437 8.00672 5.01211 8.07391 5.13784 8.19535L6.66651 9.72402L10.8618 5.52869C10.9876 5.40725 11.156 5.34005 11.3308 5.34157C11.5056 5.34309 11.6728 5.4132 11.7964 5.53681C11.92 5.66041 11.9901 5.82762 11.9916 6.00242C11.9931 6.17722 11.9259 6.34562 11.8045 6.47135Z" fill="#1261D7"/>
</g>
<defs>
<clipPath id="clip0_43_4959">
<rect width="16" height="16" fill="white"/>
</clipPath>
</defs>
</svg>
