<svg width="101" height="98" viewBox="0 0 101 98" fill="none" xmlns="http://www.w3.org/2000/svg">
<g opacity="0.3">
<ellipse cx="2.72302" cy="3.1956" rx="2.60778" ry="2.52605" fill="#CBD0EC"/>
<ellipse cx="16.2833" cy="3.1956" rx="2.60778" ry="2.52605" fill="#CBD0EC"/>
<ellipse cx="29.8439" cy="3.1956" rx="2.60778" ry="2.52605" fill="#CBD0EC"/>
<ellipse cx="43.4044" cy="3.1956" rx="2.60778" ry="2.52605" fill="#CBD0EC"/>
<ellipse cx="56.9647" cy="3.1956" rx="2.60778" ry="2.52605" fill="#CBD0EC"/>
<ellipse cx="70.5253" cy="3.1956" rx="2.60778" ry="2.52605" fill="#CBD0EC"/>
<ellipse cx="84.0858" cy="3.1956" rx="2.60778" ry="2.52605" fill="#CBD0EC"/>
<ellipse cx="97.6461" cy="3.1956" rx="2.60778" ry="2.52605" fill="#CBD0EC"/>
<ellipse cx="2.72302" cy="16.331" rx="2.60778" ry="2.52605" fill="#CBD0EC"/>
<ellipse cx="16.2833" cy="16.331" rx="2.60778" ry="2.52605" fill="#CBD0EC"/>
<ellipse cx="29.8439" cy="16.331" rx="2.60778" ry="2.52605" fill="#CBD0EC"/>
<ellipse cx="43.4044" cy="16.331" rx="2.60778" ry="2.52605" fill="#CBD0EC"/>
<ellipse cx="56.9647" cy="16.331" rx="2.60778" ry="2.52605" fill="#CBD0EC"/>
<ellipse cx="70.5253" cy="16.331" rx="2.60778" ry="2.52605" fill="#CBD0EC"/>
<ellipse cx="84.0858" cy="16.331" rx="2.60778" ry="2.52605" fill="#CBD0EC"/>
<ellipse cx="97.6461" cy="16.331" rx="2.60778" ry="2.52605" fill="#CBD0EC"/>
<ellipse cx="2.72302" cy="29.4667" rx="2.60778" ry="2.52605" fill="#CBD0EC"/>
<ellipse cx="16.2833" cy="29.4667" rx="2.60778" ry="2.52605" fill="#CBD0EC"/>
<ellipse cx="29.8439" cy="29.4667" rx="2.60778" ry="2.52605" fill="#CBD0EC"/>
<ellipse cx="43.4044" cy="29.4667" rx="2.60778" ry="2.52605" fill="#CBD0EC"/>
<ellipse cx="56.9647" cy="29.4667" rx="2.60778" ry="2.52605" fill="#CBD0EC"/>
<ellipse cx="70.5253" cy="29.4667" rx="2.60778" ry="2.52605" fill="#CBD0EC"/>
<ellipse cx="84.0858" cy="29.4667" rx="2.60778" ry="2.52605" fill="#CBD0EC"/>
<ellipse cx="97.6461" cy="29.4667" rx="2.60778" ry="2.52605" fill="#CBD0EC"/>
<ellipse cx="2.72302" cy="42.6019" rx="2.60778" ry="2.52605" fill="#CBD0EC"/>
<ellipse cx="16.2833" cy="42.6019" rx="2.60778" ry="2.52605" fill="#CBD0EC"/>
<ellipse cx="29.8439" cy="42.6019" rx="2.60778" ry="2.52605" fill="#CBD0EC"/>
<ellipse cx="43.4044" cy="42.6019" rx="2.60778" ry="2.52605" fill="#CBD0EC"/>
<ellipse cx="56.9647" cy="42.6019" rx="2.60778" ry="2.52605" fill="#CBD0EC"/>
<ellipse cx="70.5253" cy="42.6019" rx="2.60778" ry="2.52605" fill="#CBD0EC"/>
<ellipse cx="84.0858" cy="42.6019" rx="2.60778" ry="2.52605" fill="#CBD0EC"/>
<ellipse cx="97.6461" cy="42.6019" rx="2.60778" ry="2.52605" fill="#CBD0EC"/>
<ellipse cx="2.72302" cy="55.7371" rx="2.60778" ry="2.52605" fill="#CBD0EC"/>
<ellipse cx="16.2833" cy="55.7371" rx="2.60778" ry="2.52605" fill="#CBD0EC"/>
<ellipse cx="29.8439" cy="55.7371" rx="2.60778" ry="2.52605" fill="#CBD0EC"/>
<ellipse cx="43.4044" cy="55.7371" rx="2.60778" ry="2.52605" fill="#CBD0EC"/>
<ellipse cx="56.9647" cy="55.7371" rx="2.60778" ry="2.52605" fill="#CBD0EC"/>
<ellipse cx="70.5253" cy="55.7371" rx="2.60778" ry="2.52605" fill="#CBD0EC"/>
<ellipse cx="84.0858" cy="55.7371" rx="2.60778" ry="2.52605" fill="#CBD0EC"/>
<ellipse cx="97.6461" cy="55.7371" rx="2.60778" ry="2.52605" fill="#CBD0EC"/>
<ellipse cx="2.72302" cy="68.8731" rx="2.60778" ry="2.52605" fill="#CBD0EC"/>
<ellipse cx="16.2833" cy="68.8731" rx="2.60778" ry="2.52605" fill="#CBD0EC"/>
<ellipse cx="29.8439" cy="68.8731" rx="2.60778" ry="2.52605" fill="#CBD0EC"/>
<ellipse cx="43.4044" cy="68.8731" rx="2.60778" ry="2.52605" fill="#CBD0EC"/>
<ellipse cx="56.9647" cy="68.8731" rx="2.60778" ry="2.52605" fill="#CBD0EC"/>
<ellipse cx="70.5253" cy="68.8731" rx="2.60778" ry="2.52605" fill="#CBD0EC"/>
<ellipse cx="84.0858" cy="68.8731" rx="2.60778" ry="2.52605" fill="#CBD0EC"/>
<ellipse cx="97.6461" cy="68.8731" rx="2.60778" ry="2.52605" fill="#CBD0EC"/>
<ellipse cx="2.72302" cy="82.0081" rx="2.60778" ry="2.52605" fill="#CBD0EC"/>
<ellipse cx="16.2833" cy="82.0081" rx="2.60778" ry="2.52605" fill="#CBD0EC"/>
<ellipse cx="29.8439" cy="82.0081" rx="2.60778" ry="2.52605" fill="#CBD0EC"/>
<ellipse cx="43.4044" cy="82.0081" rx="2.60778" ry="2.52605" fill="#CBD0EC"/>
<ellipse cx="56.9647" cy="82.0081" rx="2.60778" ry="2.52605" fill="#CBD0EC"/>
<ellipse cx="70.5253" cy="82.0081" rx="2.60778" ry="2.52605" fill="#CBD0EC"/>
<ellipse cx="84.0858" cy="82.0081" rx="2.60778" ry="2.52605" fill="#CBD0EC"/>
<ellipse cx="97.6461" cy="82.0081" rx="2.60778" ry="2.52605" fill="#CBD0EC"/>
<ellipse cx="2.72302" cy="95.1432" rx="2.60778" ry="2.52605" fill="#CBD0EC"/>
<ellipse cx="16.2833" cy="95.1432" rx="2.60778" ry="2.52605" fill="#CBD0EC"/>
<ellipse cx="29.8439" cy="95.1432" rx="2.60778" ry="2.52605" fill="#CBD0EC"/>
<ellipse cx="43.4044" cy="95.1432" rx="2.60778" ry="2.52605" fill="#CBD0EC"/>
<ellipse cx="56.9647" cy="95.1432" rx="2.60778" ry="2.52605" fill="#CBD0EC"/>
<ellipse cx="70.5253" cy="95.1432" rx="2.60778" ry="2.52605" fill="#CBD0EC"/>
<ellipse cx="84.0858" cy="95.1432" rx="2.60778" ry="2.52605" fill="#CBD0EC"/>
<ellipse cx="97.6461" cy="95.1432" rx="2.60778" ry="2.52605" fill="#CBD0EC"/>
</g>
</svg>
