<svg width="133" height="132" viewBox="0 0 133 132" fill="none" xmlns="http://www.w3.org/2000/svg">
<g opacity="0.3">
<ellipse cx="3.44111" cy="3.43634" rx="3.44111" ry="3.43634" fill="#CBD0EC"/>
<ellipse cx="21.3348" cy="3.43634" rx="3.44111" ry="3.43634" fill="#CBD0EC"/>
<ellipse cx="39.2287" cy="3.43634" rx="3.44111" ry="3.43634" fill="#CBD0EC"/>
<ellipse cx="57.1224" cy="3.43634" rx="3.44111" ry="3.43634" fill="#CBD0EC"/>
<ellipse cx="75.0162" cy="3.43634" rx="3.44111" ry="3.43634" fill="#CBD0EC"/>
<ellipse cx="92.9101" cy="3.43634" rx="3.44111" ry="3.43634" fill="#CBD0EC"/>
<ellipse cx="110.804" cy="3.43634" rx="3.44111" ry="3.43634" fill="#CBD0EC"/>
<ellipse cx="128.698" cy="3.43634" rx="3.44111" ry="3.43634" fill="#CBD0EC"/>
<ellipse cx="3.44111" cy="21.3052" rx="3.44111" ry="3.43634" fill="#CBD0EC"/>
<ellipse cx="21.3348" cy="21.3052" rx="3.44111" ry="3.43634" fill="#CBD0EC"/>
<ellipse cx="39.2287" cy="21.3052" rx="3.44111" ry="3.43634" fill="#CBD0EC"/>
<ellipse cx="57.1224" cy="21.3052" rx="3.44111" ry="3.43634" fill="#CBD0EC"/>
<ellipse cx="75.0162" cy="21.3052" rx="3.44111" ry="3.43634" fill="#CBD0EC"/>
<ellipse cx="92.9101" cy="21.3052" rx="3.44111" ry="3.43634" fill="#CBD0EC"/>
<ellipse cx="110.804" cy="21.3052" rx="3.44111" ry="3.43634" fill="#CBD0EC"/>
<ellipse cx="128.698" cy="21.3052" rx="3.44111" ry="3.43634" fill="#CBD0EC"/>
<ellipse cx="3.44111" cy="39.1744" rx="3.44111" ry="3.43634" fill="#CBD0EC"/>
<ellipse cx="21.3348" cy="39.1744" rx="3.44111" ry="3.43634" fill="#CBD0EC"/>
<ellipse cx="39.2287" cy="39.1744" rx="3.44111" ry="3.43634" fill="#CBD0EC"/>
<ellipse cx="57.1224" cy="39.1744" rx="3.44111" ry="3.43634" fill="#CBD0EC"/>
<ellipse cx="75.0162" cy="39.1744" rx="3.44111" ry="3.43634" fill="#CBD0EC"/>
<ellipse cx="92.9101" cy="39.1744" rx="3.44111" ry="3.43634" fill="#CBD0EC"/>
<ellipse cx="110.804" cy="39.1744" rx="3.44111" ry="3.43634" fill="#CBD0EC"/>
<ellipse cx="128.698" cy="39.1744" rx="3.44111" ry="3.43634" fill="#CBD0EC"/>
<ellipse cx="3.44111" cy="57.0433" rx="3.44111" ry="3.43634" fill="#CBD0EC"/>
<ellipse cx="21.3348" cy="57.0433" rx="3.44111" ry="3.43634" fill="#CBD0EC"/>
<ellipse cx="39.2287" cy="57.0433" rx="3.44111" ry="3.43634" fill="#CBD0EC"/>
<ellipse cx="57.1224" cy="57.0433" rx="3.44111" ry="3.43634" fill="#CBD0EC"/>
<ellipse cx="75.0162" cy="57.0433" rx="3.44111" ry="3.43634" fill="#CBD0EC"/>
<ellipse cx="92.9101" cy="57.0433" rx="3.44111" ry="3.43634" fill="#CBD0EC"/>
<ellipse cx="110.804" cy="57.0433" rx="3.44111" ry="3.43634" fill="#CBD0EC"/>
<ellipse cx="128.698" cy="57.0433" rx="3.44111" ry="3.43634" fill="#CBD0EC"/>
<ellipse cx="3.44111" cy="74.9123" rx="3.44111" ry="3.43634" fill="#CBD0EC"/>
<ellipse cx="21.3348" cy="74.9123" rx="3.44111" ry="3.43634" fill="#CBD0EC"/>
<ellipse cx="39.2287" cy="74.9123" rx="3.44111" ry="3.43634" fill="#CBD0EC"/>
<ellipse cx="57.1224" cy="74.9123" rx="3.44111" ry="3.43634" fill="#CBD0EC"/>
<ellipse cx="75.0162" cy="74.9123" rx="3.44111" ry="3.43634" fill="#CBD0EC"/>
<ellipse cx="92.9101" cy="74.9123" rx="3.44111" ry="3.43634" fill="#CBD0EC"/>
<ellipse cx="110.804" cy="74.9123" rx="3.44111" ry="3.43634" fill="#CBD0EC"/>
<ellipse cx="128.698" cy="74.9123" rx="3.44111" ry="3.43634" fill="#CBD0EC"/>
<ellipse cx="3.44111" cy="92.7813" rx="3.44111" ry="3.43634" fill="#CBD0EC"/>
<ellipse cx="21.3348" cy="92.7813" rx="3.44111" ry="3.43634" fill="#CBD0EC"/>
<ellipse cx="39.2287" cy="92.7813" rx="3.44111" ry="3.43634" fill="#CBD0EC"/>
<ellipse cx="57.1224" cy="92.7813" rx="3.44111" ry="3.43634" fill="#CBD0EC"/>
<ellipse cx="75.0162" cy="92.7813" rx="3.44111" ry="3.43634" fill="#CBD0EC"/>
<ellipse cx="92.9101" cy="92.7813" rx="3.44111" ry="3.43634" fill="#CBD0EC"/>
<ellipse cx="110.804" cy="92.7813" rx="3.44111" ry="3.43634" fill="#CBD0EC"/>
<ellipse cx="128.698" cy="92.7813" rx="3.44111" ry="3.43634" fill="#CBD0EC"/>
<ellipse cx="3.44111" cy="110.65" rx="3.44111" ry="3.43634" fill="#CBD0EC"/>
<ellipse cx="21.3348" cy="110.65" rx="3.44111" ry="3.43634" fill="#CBD0EC"/>
<ellipse cx="39.2287" cy="110.65" rx="3.44111" ry="3.43634" fill="#CBD0EC"/>
<ellipse cx="57.1224" cy="110.65" rx="3.44111" ry="3.43634" fill="#CBD0EC"/>
<ellipse cx="75.0162" cy="110.65" rx="3.44111" ry="3.43634" fill="#CBD0EC"/>
<ellipse cx="92.9101" cy="110.65" rx="3.44111" ry="3.43634" fill="#CBD0EC"/>
<ellipse cx="110.804" cy="110.65" rx="3.44111" ry="3.43634" fill="#CBD0EC"/>
<ellipse cx="128.698" cy="110.65" rx="3.44111" ry="3.43634" fill="#CBD0EC"/>
<ellipse cx="3.44111" cy="128.519" rx="3.44111" ry="3.43634" fill="#CBD0EC"/>
<ellipse cx="21.3348" cy="128.519" rx="3.44111" ry="3.43634" fill="#CBD0EC"/>
<ellipse cx="39.2287" cy="128.519" rx="3.44111" ry="3.43634" fill="#CBD0EC"/>
<ellipse cx="57.1224" cy="128.519" rx="3.44111" ry="3.43634" fill="#CBD0EC"/>
<ellipse cx="75.0162" cy="128.519" rx="3.44111" ry="3.43634" fill="#CBD0EC"/>
<ellipse cx="92.9101" cy="128.519" rx="3.44111" ry="3.43634" fill="#CBD0EC"/>
<ellipse cx="110.804" cy="128.519" rx="3.44111" ry="3.43634" fill="#CBD0EC"/>
<ellipse cx="128.698" cy="128.519" rx="3.44111" ry="3.43634" fill="#CBD0EC"/>
</g>
</svg>
