<svg width="292" height="120" viewBox="0 0 292 120" fill="none" xmlns="http://www.w3.org/2000/svg">
<path d="M75.2207 1.17585L4.32097 31.1719C2.69813 31.8585 2.6919 34.1561 4.31099 34.8515L75.2107 65.302C76.5306 65.8689 78 64.9009 78 63.4644V3.01778C78 1.58595 76.5394 0.617949 75.2207 1.17585Z" fill="#102B5B"/>
<path d="M37 57V98.5C48.2 94.9 68.6667 108.333 77.5 115.5V74.5L37 57Z" fill="#102B5B"/>
<path d="M106.172 49.54C103.832 49.54 101.69 49.252 99.746 48.676C97.838 48.1 96.128 47.254 94.616 46.138C93.14 45.022 91.808 43.672 90.62 42.088L95.696 36.31C97.46 38.758 99.206 40.432 100.934 41.332C102.698 42.196 104.606 42.628 106.658 42.628C107.774 42.628 108.764 42.484 109.628 42.196C110.528 41.872 111.23 41.422 111.734 40.846C112.238 40.27 112.49 39.586 112.49 38.794C112.49 38.218 112.364 37.696 112.112 37.228C111.86 36.724 111.5 36.292 111.032 35.932C110.564 35.536 110.006 35.194 109.358 34.906C108.71 34.582 107.99 34.312 107.198 34.096C106.406 33.844 105.542 33.646 104.606 33.502C102.59 33.034 100.826 32.476 99.314 31.828C97.802 31.144 96.542 30.316 95.534 29.344C94.526 28.336 93.77 27.202 93.266 25.942C92.798 24.682 92.564 23.26 92.564 21.676C92.564 20.056 92.924 18.562 93.644 17.194C94.364 15.79 95.354 14.584 96.614 13.576C97.91 12.568 99.386 11.794 101.042 11.254C102.734 10.714 104.516 10.444 106.388 10.444C108.692 10.444 110.708 10.714 112.436 11.254C114.164 11.758 115.658 12.496 116.918 13.468C118.214 14.44 119.294 15.628 120.158 17.032L115.028 22C114.272 20.992 113.444 20.146 112.544 19.462C111.68 18.778 110.726 18.274 109.682 17.95C108.674 17.59 107.63 17.41 106.55 17.41C105.362 17.41 104.336 17.572 103.472 17.896C102.608 18.184 101.924 18.616 101.42 19.192C100.952 19.768 100.718 20.47 100.718 21.298C100.718 21.946 100.88 22.522 101.204 23.026C101.528 23.53 101.996 23.98 102.608 24.376C103.22 24.736 103.958 25.06 104.822 25.348C105.686 25.636 106.64 25.888 107.684 26.104C109.664 26.5 111.446 27.022 113.03 27.67C114.614 28.318 115.964 29.11 117.08 30.046C118.232 30.946 119.114 32.026 119.726 33.286C120.338 34.51 120.644 35.896 120.644 37.444C120.644 40 120.032 42.178 118.808 43.978C117.584 45.778 115.892 47.164 113.732 48.136C111.572 49.072 109.052 49.54 106.172 49.54ZM135.864 49V18.49H124.848V11.2H155.304V18.49H143.964V49H135.864ZM161.994 49V11.2H187.536V18.328H169.878V41.872H187.914V49H161.994ZM165.774 33.178V26.266H184.944V33.178H165.774ZM196.271 49V11.2H203.669L217.439 33.61L212.579 33.556L226.511 11.2H233.585V49H225.647V36.04C225.647 32.8 225.719 29.884 225.863 27.292C226.043 24.7 226.331 22.126 226.727 19.57L227.699 22.108L216.629 39.28H213.065L202.211 22.216L203.129 19.57C203.525 21.982 203.795 24.466 203.939 27.022C204.119 29.542 204.209 32.548 204.209 36.04V49H196.271Z" fill="#1261D7"/>
<path d="M101.42 107V73.304H90.62V69.2H116.864V73.304H105.632V107H101.42ZM119.151 107V78.812H123.201L123.309 86.318L122.877 85.292C123.273 84.032 123.903 82.862 124.767 81.782C125.667 80.702 126.729 79.838 127.953 79.19C129.177 78.542 130.527 78.218 132.003 78.218C132.615 78.218 133.191 78.272 133.731 78.38C134.271 78.452 134.721 78.56 135.081 78.704L133.947 83.24C133.479 83.024 132.993 82.88 132.489 82.808C132.021 82.7 131.571 82.646 131.139 82.646C129.915 82.646 128.817 82.862 127.845 83.294C126.873 83.726 126.045 84.338 125.361 85.13C124.677 85.886 124.155 86.768 123.795 87.776C123.435 88.784 123.255 89.864 123.255 91.016V107H119.151ZM149.099 107.54C146.651 107.54 144.437 106.91 142.457 105.65C140.477 104.354 138.911 102.608 137.759 100.412C136.607 98.18 136.031 95.66 136.031 92.852C136.031 90.008 136.625 87.488 137.813 85.292C139.001 83.096 140.585 81.368 142.565 80.108C144.581 78.848 146.831 78.218 149.315 78.218C150.791 78.218 152.159 78.434 153.419 78.866C154.679 79.298 155.795 79.91 156.767 80.702C157.775 81.458 158.603 82.358 159.251 83.402C159.935 84.41 160.403 85.508 160.655 86.696L159.467 86.102L159.629 78.812H163.679V107H159.575V100.088L160.655 99.386C160.403 100.466 159.917 101.51 159.197 102.518C158.477 103.49 157.595 104.354 156.551 105.11C155.543 105.866 154.391 106.46 153.095 106.892C151.835 107.324 150.503 107.54 149.099 107.54ZM150.017 103.652C151.889 103.652 153.563 103.202 155.039 102.302C156.515 101.366 157.667 100.088 158.495 98.468C159.359 96.812 159.791 94.94 159.791 92.852C159.791 90.764 159.359 88.91 158.495 87.29C157.667 85.67 156.515 84.392 155.039 83.456C153.563 82.52 151.889 82.052 150.017 82.052C148.109 82.052 146.417 82.52 144.941 83.456C143.501 84.392 142.349 85.67 141.485 87.29C140.657 88.91 140.243 90.764 140.243 92.852C140.243 94.904 140.657 96.758 141.485 98.414C142.313 100.034 143.465 101.312 144.941 102.248C146.417 103.184 148.109 103.652 150.017 103.652ZM172.649 107V78.812H176.699V107H172.649ZM174.647 72.71C173.639 72.71 172.865 72.458 172.325 71.954C171.821 71.414 171.569 70.694 171.569 69.794C171.569 68.894 171.839 68.174 172.379 67.634C172.919 67.094 173.675 66.824 174.647 66.824C175.619 66.824 176.375 67.094 176.915 67.634C177.455 68.138 177.725 68.858 177.725 69.794C177.725 70.658 177.455 71.36 176.915 71.9C176.375 72.44 175.619 72.71 174.647 72.71ZM185.544 107V78.812H189.54L189.702 84.698L189.054 84.968C189.414 83.744 190.116 82.628 191.16 81.62C192.204 80.612 193.446 79.802 194.886 79.19C196.362 78.542 197.874 78.218 199.422 78.218C201.51 78.218 203.256 78.632 204.66 79.46C206.064 80.288 207.126 81.566 207.846 83.294C208.566 85.022 208.926 87.218 208.926 89.882V107H204.822V90.098C204.822 88.226 204.57 86.696 204.066 85.508C203.598 84.284 202.86 83.384 201.852 82.808C200.844 82.232 199.602 81.962 198.126 81.998C196.902 81.998 195.768 82.214 194.724 82.646C193.68 83.042 192.78 83.6 192.024 84.32C191.268 85.04 190.674 85.868 190.242 86.804C189.81 87.74 189.594 88.748 189.594 89.828V107H187.596C187.344 107 187.056 107 186.732 107C186.408 107 186.012 107 185.544 107ZM217.737 107V78.812H221.787V107H217.737ZM219.735 72.71C218.727 72.71 217.953 72.458 217.413 71.954C216.909 71.414 216.657 70.694 216.657 69.794C216.657 68.894 216.927 68.174 217.467 67.634C218.007 67.094 218.763 66.824 219.735 66.824C220.707 66.824 221.463 67.094 222.003 67.634C222.543 68.138 222.813 68.858 222.813 69.794C222.813 70.658 222.543 71.36 222.003 71.9C221.463 72.44 220.707 72.71 219.735 72.71ZM230.631 107V78.812H234.627L234.789 84.698L234.141 84.968C234.501 83.744 235.203 82.628 236.247 81.62C237.291 80.612 238.533 79.802 239.973 79.19C241.449 78.542 242.961 78.218 244.509 78.218C246.597 78.218 248.343 78.632 249.747 79.46C251.151 80.288 252.213 81.566 252.933 83.294C253.653 85.022 254.013 87.218 254.013 89.882V107H249.909V90.098C249.909 88.226 249.657 86.696 249.153 85.508C248.685 84.284 247.947 83.384 246.939 82.808C245.931 82.232 244.689 81.962 243.213 81.998C241.989 81.998 240.855 82.214 239.811 82.646C238.767 83.042 237.867 83.6 237.111 84.32C236.355 85.04 235.761 85.868 235.329 86.804C234.897 87.74 234.681 88.748 234.681 89.828V107H232.683C232.431 107 232.143 107 231.819 107C231.495 107 231.099 107 230.631 107ZM273.895 119.42C271.807 119.42 269.827 119.096 267.955 118.448C266.083 117.8 264.535 116.99 263.311 116.018L264.931 112.616C265.651 113.192 266.479 113.696 267.415 114.128C268.387 114.596 269.431 114.956 270.547 115.208C271.663 115.496 272.797 115.64 273.949 115.64C276.037 115.64 277.801 115.244 279.241 114.452C280.717 113.696 281.833 112.562 282.589 111.05C283.381 109.538 283.777 107.666 283.777 105.434V100.034L284.425 99.872C284.101 101.24 283.399 102.518 282.319 103.706C281.239 104.858 279.925 105.794 278.377 106.514C276.829 107.198 275.191 107.54 273.463 107.54C270.835 107.54 268.477 106.91 266.389 105.65C264.337 104.39 262.717 102.662 261.529 100.466C260.341 98.234 259.747 95.714 259.747 92.906C259.747 90.062 260.341 87.542 261.529 85.346C262.753 83.114 264.391 81.368 266.443 80.108C268.495 78.848 270.799 78.218 273.355 78.218C274.471 78.218 275.551 78.362 276.595 78.65C277.639 78.902 278.593 79.28 279.457 79.784C280.357 80.288 281.167 80.864 281.887 81.512C282.607 82.16 283.201 82.862 283.669 83.618C284.173 84.374 284.533 85.148 284.749 85.94L283.615 85.778L283.777 78.812H287.827V105.272C287.827 107.54 287.503 109.538 286.855 111.266C286.207 113.03 285.253 114.506 283.993 115.694C282.769 116.918 281.293 117.836 279.565 118.448C277.873 119.096 275.983 119.42 273.895 119.42ZM273.949 103.652C275.857 103.652 277.549 103.202 279.025 102.302C280.537 101.366 281.725 100.088 282.589 98.468C283.453 96.848 283.885 94.976 283.885 92.852C283.885 90.764 283.453 88.91 282.589 87.29C281.761 85.67 280.591 84.392 279.079 83.456C277.567 82.52 275.857 82.052 273.949 82.052C272.005 82.052 270.277 82.52 268.765 83.456C267.289 84.392 266.119 85.67 265.255 87.29C264.391 88.91 263.959 90.764 263.959 92.852C263.959 94.904 264.373 96.758 265.201 98.414C266.065 100.034 267.235 101.312 268.711 102.248C270.223 103.184 271.969 103.652 273.949 103.652Z" fill="#102B5B"/>
</svg>
